<?xml version="1.0" encoding="utf-8"?>
<!-- Generator: Adobe Illustrator 22.1.0, SVG Export Plug-In . SVG Version: 6.00 Build 0)  -->
<svg version="1.1" xmlns="http://www.w3.org/2000/svg" xmlns:xlink="http://www.w3.org/1999/xlink" x="0px" y="0px"
	 viewBox="0 0 253 382" style="enable-background:new 0 0 253 382;" xml:space="preserve">
<style type="text/css">
	.st0{fill:#3F1E3A;}
	.st1{fill:#B9BC7E;stroke:#3F1E3A;stroke-miterlimit:10;}
	.st2{opacity:0.19;}
	.st3{opacity:0.57;fill:#EFEEDC;}
	.st4{opacity:0.33;fill:#EFEEDC;}
	.st5{fill:#908FB2;stroke:#3F1E3A;stroke-miterlimit:10;}
	.st6{opacity:0.25;}
	.st7{opacity:0.28;}
	.st8{opacity:0.25;fill:#EFEEDC;}
	.st9{opacity:0.17;fill:#EFEEDC;}
</style>
<g id="YellowPear">
	<path id="Stem_1_" class="st0" d="M144.4,44c-1.3-4.7,1.7-25.6,1.7-25.6L157.7,2l0,0c0.7-1,2.1-1.3,3.1-0.7
		c1.1,0.6,1.5,2.1,0.9,3.3s-2.1,1.6-3.3,1c-0.1,0-0.2-0.1-0.2-0.2l0,0l-9.3,13.3c-1.5,1.5-1.7,25.6-1.7,25.6S144.5,44.4,144.4,44z"
		/>
	<path id="Pear_1_" class="st1" d="M197.5,157.5c-2.9,14.1-14.4,31.9-40.4,34c-33.9,2.4-56.9-12.7-56.7-32.4s5.8-30.8,11.5-44.3
		c5.2-15.7,2.2-26.6,2.9-37c1.7-25,16.2-37,31.6-38c11.5,0.6,22.4,4.4,29.8,32.1c2.8,25.1,6.2,32.6,9.3,40.5
		C197.7,131.7,198.8,146.5,197.5,157.5z"/>
	<g id="Shadow_1_">
		<path class="st2" d="M190.1,121.6c9.2,34-4.7,54.6-10.1,62.4c0,0,13-7,18-26C198,158,199,134,190.1,121.6z"/>
		<path class="st2" d="M151,41c18,14,22,28,26,40c0,0,0-14-7-25C170,56,165,43,151,41z"/>
	</g>
	<path id="Highlights_4_" class="st3" d="M140,52c-8,0-5.8,23,0,23C144,75,146,52,140,52z"/>
	<path id="Highlights_3_" class="st4" d="M143,122c-7.7,2.3-5.6,24.7,0,23C172.2,135.9,162.7,116.1,143,122z"/>
</g>
<g id="PurplePear">
	<path id="pear_1_" class="st5" d="M222.5,258.5c8.2,25.4,26,69-15,96c-54,34.5-106,26-124-6s-19-50-22-77c-6-30-21-45-29.5-62.5
		c-20.4-42-7.5-74.5,17-90c19.5-9.5,41.5-13.5,79.5,24.5c28,38,30.5,54.9,43,65C204.5,229.5,214.5,239.5,222.5,258.5z"/>
	<g id="stem">
		<path class="st0" d="M49.5,127.5c-6.5-6.5-21-43-21-43l4-37l0,0c0.2-2.3,2.1-4,4.5-4c2.5,0,4.5,2,4.5,4.5s-2,4.5-4.5,4.5
			c-0.2,0-0.3,0-0.5,0l0,0l-3,30c-1.1,3.8,21,43,21,43S50,128,49.5,127.5z"/>
	</g>
	<g id="Shadow">
		<path class="st6" d="M25,193c3,13,36,63,36,76c0,4.4,8,84,43,99c18.9,8.1,40,9,40,9c-36,0-82-55-78-114c-47-77-41-108-29-135
			C37,128,15,147,25,193z"/>
		<path class="st7" d="M186,219c43.3,35.4,47.4,97.5,42,114c0.8-1.8,13-17-2.8-65.2C218,237,185.9,218.9,186,219z"/>
	</g>
	<g id="Highlights">
		<path class="st8" d="M62.5,139.5c-1.6,1.5,6.7,57,38,57C116.5,196.5,79.7,123,62.5,139.5z"/>
		<path class="st9" d="M143,249c-8,6-11,15-4,36c12,17,23,21,33,14c8.2-5.7,13-21,4-37C169.5,250.4,150.2,243.6,143,249z"/>
	</g>
</g>
</svg>