<svg xmlns="http://www.w3.org/2000/svg" xmlns:xlink="http://www.w3.org/1999/xlink" viewBox="0 0 1054.64 828.87"><defs><style>.cls-1{isolation:isolate;}.cls-2{fill:#bfb3b3;}.cls-2,.cls-3,.cls-4,.cls-5{stroke:#000;}.cls-13,.cls-17,.cls-2,.cls-3,.cls-4,.cls-5,.cls-7{stroke-miterlimit:10;}.cls-3{fill:#8e8077;}.cls-4{fill:#fffdf1;}.cls-5{fill:#42414f;}.cls-6{font-size:12px;font-family:MyriadPro-Regular, Myriad Pro;}.cls-7{fill:#908fb2;}.cls-13,.cls-17,.cls-7{stroke:#3f1e3a;}.cls-8{fill:#3f1e3a;}.cls-11,.cls-9{opacity:0.25;}.cls-10,.cls-9{mix-blend-mode:multiply;}.cls-10{opacity:0.28;}.cls-11,.cls-12,.cls-15,.cls-16,.cls-18{fill:#efeedc;mix-blend-mode:overlay;}.cls-12{opacity:0.17;}.cls-13{fill:#b9bc7e;}.cls-14{opacity:0.19;}.cls-15{opacity:0.57;}.cls-16{opacity:0.33;}.cls-17{fill:#f8f0db;}.cls-18{opacity:0.23;}.cls-19{fill:#ffd577;}</style></defs><title>ComputerAndPears</title><g class="cls-1"><g id="_90sComputer" data-name="90sComputer"><path class="cls-2" d="M418.5,121.5c-7,11-2.8,288.63,0,289,6,.79,349-3,380-5,4-23,10-275,1-286C791.5,112.5,424.62,111.88,418.5,121.5Z" transform="translate(-81.4 46.58)"/><path class="cls-3" d="M464.57,148.75c-5.3,8.34-2.12,218.9,0,219.18,4.52.6,273.93-3.43,291.93-5.43,1-16,3.86-206.92-3-215.27C747.47,141.92,469.22,141.45,464.57,148.75Z" transform="translate(-81.4 46.58)"/><path class="cls-4" d="M476.5,160.5c-4.27,7.38-2.2,193.21-.49,193.46,3.63.53,230.08-3.46,232.49-3.46.8-2.65,1.58-190,0-192C708.6,158.16,480.23,154.05,476.5,160.5Z" transform="translate(-81.4 46.58)"/><path class="cls-2" d="M344,418c3-2,511-5,511-5V549l-511,5Z" transform="translate(-81.4 46.58)"/><path class="cls-5" d="M518.5,431.5v106l313-3s2-93,0-103C830.52,426.6,518.5,431.5,518.5,431.5Z" transform="translate(-81.4 46.58)"/><polygon class="cls-2" points="292.1 614.08 245.1 706.08 818.1 698.08 756.1 608.08 292.1 614.08"/></g><g id="ScreenContents"><image width="64" height="64" transform="translate(558.6 215.58) scale(0.58 0.61)" xlink:href="icons8-google-64.png"/><g id="Text"><rect class="cls-4" x="402.6" y="277.58" width="218" height="31"/><text class="cls-6" transform="translate(409.67 298.42)">find a pair</text></g></g><g id="PearPurple"><path id="pear" class="cls-7" d="M467.46,586.18c-6.62,62.24-10.07,172.49-123.58,191.24C195.44,800,92.17,732.11,84.12,646.45s6.95-125.15,26.25-185.82c15.74-69.94-2.09-116.35-3.62-161.91-3.66-109.42,54.92-166.65,122.14-176.5,50.8-1.76,101.71,10.63,146.87,128.19,23.75,108,13,146.55,30.14,180.13C456.54,506.94,468.43,537.88,467.46,586.18Z" transform="translate(-81.4 46.58)"/><path class="cls-8" d="M265.48-32.06l-35,61.37c-6,7.19,4,112.07,4,112.07s-12,1.06-12.61-.48c-7.74-20.17-4-112.07-4-112.07l43.81-75.41" transform="translate(-81.4 46.58)"/><path class="cls-9" d="M194.62,133.06S129.42,152.78,107,260.79c-6,30.69,17.06,169.18,4.67,197C107.77,466.59,68,558,87,661c8.58,46.51,61,87,69,87-85-72-44-251-31-313C142,381,74,231,194.62,133.06Z" transform="translate(-81.4 46.58)"/><path class="cls-10" d="M426.94,466.84c59.06,117,8.53,253.77-18.68,284.08,3.32-3.1,44-24,56.2-142.31C478.3,535.86,426.85,466.5,426.94,466.84Z" transform="translate(-81.4 46.58)"/><path class="cls-11" d="M238.26,179c-4.92,1.78-40,128.42,27.06,158.24C299.58,352.45,290.88,160,238.26,179Z" transform="translate(-81.4 46.58)"/><path class="cls-12" d="M306.3,490.1c-23,4.45-37.84,21.64-42.86,73.27,9.49,47.83,29.23,66.87,57.31,61.41,23-4.48,46.3-32.46,43.82-75.41C363,521.85,327.24,486.05,306.3,490.1Z" transform="translate(-81.4 46.58)"/></g><g id="YellowHalf"><path id="Stem" class="cls-8" d="M936.82,399.64c-4.78,1.1-25.51-2.59-25.51-2.59l-15.93-12.13h0a2.37,2.37,0,1,1,3.51-.63,1.88,1.88,0,0,1-.16.23h0l13,9.73c1.47,1.57,25.51,2.58,25.51,2.58S937.19,399.55,936.82,399.64Z" transform="translate(-81.4 46.58)"/><path id="Pear-2" data-name="Pear" class="cls-13" d="M1065.88,368.91c18.34,1.78,39.22,28.32,39.22,44.3,0,5.08-29,5.81-64.64,3.63-15.68-1-80.36-1.62-85.7-2.18-24.9-2.57-24.6-3.13-25-18.46.95-11.41,5.2-22.18,33-28.62,25.41-1.58,41.31,13.57,49.38,10.77C1031.71,366.87,1055,367.19,1065.88,368.91Z" transform="translate(-81.4 46.58)"/><path class="cls-14" d="M1039.37,369.27c22.52-2.9,46.49,6.54,54.47,18.88,0,0-5.08-9.44-21.06-17.43C1072.78,370.72,1061.89,364.19,1039.37,369.27Z" transform="translate(-81.4 46.58)"/><path class="cls-14" d="M931.88,387.43c12.35-15.25,33.41-19.61,43-19,0,0-13.19-2.79-24.81,3C950,371.45,935.52,376.53,931.88,387.43Z" transform="translate(-81.4 46.58)"/><path id="Highlights" class="cls-15" d="M956.28,398.49c-.28,8,22.72,6.62,22.92.8C979.34,395.31,956.48,392.51,956.28,398.49Z" transform="translate(-81.4 46.58)"/><path id="Highlights-2" data-name="Highlights" class="cls-16" d="M1039.37,396.14c-.56,8,35,13.41,37.77,3.63C1080.05,389.61,1040.1,386,1039.37,396.14Z" transform="translate(-81.4 46.58)"/></g><g id="YellowHalfUp"><path id="Pear-3" data-name="Pear" class="cls-13" d="M951.31,489.1C926,488.55,901.23,454,899.5,431.5c31-7,185.38-3.32,192.76-2.88,15.1.89,43.24-4.12,43.28,9.27-.15,15.77-4.89,31-42.48,42.64-34.74,4.73-56.76-8.69-67.56-4C1012.84,484.28,966.48,490.36,951.31,489.1Z" transform="translate(-81.4 46.58)"/><path class="cls-14" d="M988,486c-26,5-68-7-75-24,0,0,6.25,15.64,29,25A92.64,92.64,0,0,0,988,486Z" transform="translate(-81.4 46.58)"/><path class="cls-14" d="M1133.45,450.16c-15.42,22.19-43.9,30.29-57.09,30.42,0,0,18.39,2.5,33.76-6.65C1110.12,473.93,1129.56,465.48,1133.45,450.16Z" transform="translate(-81.4 46.58)"/><g id="Inside"><path class="cls-17" d="M899.5,431.5c0,3,9,5,15,5,18,0,103.28-8.16,112.37-5,8.63,3,53.63,6,67.63,6,13,0,39.22,5.57,40-3,1-11-108-10-108-10Z" transform="translate(-81.4 46.58)"/></g><path id="Highlights-3" data-name="Highlights" class="cls-18" d="M1033,455c-9.83,4.91,10.84,10.58,18,7,4-2,8-7.87,4-9A33,33,0,0,0,1033,455Z" transform="translate(-81.4 46.58)"/><g id="Seed"><path class="cls-19" d="M1087,432c-2.68-.89,3-3,3-3s5,0,6,2C1096.45,431.89,1090,433,1087,432Z" transform="translate(-81.4 46.58)"/></g></g></g></svg>