<?xml version="1.0" encoding="utf-8"?>
<!-- Generator: Adobe Illustrator 22.1.0, SVG Export Plug-In . SVG Version: 6.00 Build 0)  -->
<svg version="1.1" xmlns="http://www.w3.org/2000/svg" xmlns:xlink="http://www.w3.org/1999/xlink" x="0px" y="0px"
	 viewBox="0 0 1475 782" style="enable-background:new 0 0 1475 782;" xml:space="preserve">
<style type="text/css">
	.st0{fill:#00051B;}
	.st1{fill:#FFF0CE;}
	.st2{fill:#2B2B2B;}
	.st3{fill:#ECDEDB;}
	.st4{fill:#8AF4FF;}
	.st5{fill:#B10500;}
	.st6{fill:#DE0500;}
	.st7{fill:#2B0900;stroke:#000000;stroke-miterlimit:10;}
	.st8{fill:#6C1A00;}
</style>
<g id="Car">
	<g id="Steering">
		<path class="st0" d="M921,321c1-3,7-3,9-1s11,83,9,86s-9,2-9,0C930,406,920,324,921,321z"/>
	</g>
	<g id="Left_Seat">
		<path class="st1" d="M719,276c1,1,9-22,19,0s5,19,5,19l1,43c0,0-31,7-32,0s0-52,0-52L719,276z"/>
		<path class="st1" d="M707,352h39c0,0,34,99,31,106s-42,17-45,0S707,352,707,352z"/>
		<path class="st1" d="M731,467l1,24c11,4,142-4,142-4s-1-23-3-20S731,467,731,467z"/>
		<path class="st1" d="M469.6,294.2c1,1,8.7-21.3,18.4,0c9.7,21.3,4.9,18.4,4.9,18.4l1,41.7c0,0-30.1,6.8-31,0s0-50.5,0-50.5
			L469.6,294.2z"/>
		<path class="st1" d="M458,368h37.8c0,0,33,96.1,30.1,102.9c-2.9,6.8-40.7,16.5-43.7,0C479.3,454.4,458,368,458,368z"/>
		<path class="st1" d="M481.3,479.6l1,23.3C492.9,506.8,620,499,620,499s-1-22.3-2.9-19.4S481.3,479.6,481.3,479.6z"/>
	</g>
	<g id="Dash">
		<path class="st1" d="M945,392h63v-22l-54-29C948,360,945,392,945,392z"/>
	</g>
	<g id="Wheels">
		<circle class="st2" cx="1225" cy="525" r="64"/>
		<circle class="st3" cx="1225.5" cy="525.5" r="42.5"/>
		<circle class="st2" cx="312" cy="516" r="64"/>
		<circle class="st3" cx="312.5" cy="516.5" r="42.5"/>
	</g>
	<g id="Panel">
		<path class="st4" d="M668,378l12,133l297-7l-5-113l35-12l-63-60l6-5l67,43l32,21c0,0,367-12,387,13c6,10,14,101-10,101
			c0,0-129,3-146,3c-2.4-20.9-27-22-62-21c-58.1,1.7-58,62-58,62c-32,1-779,1-779,1s-287,10-300,3s-39-13-47-73
			c-0.8-5.7,37.5-46.1,38-47c1.6-10.8-40-19-43-33l80-9l97,5l247,1L668,378z"/>
		<path class="st3" d="M1441,467c0,0,9,33,9,52c0,31-27,28-59,29s-92,0-92,0l-19-53c0,0,108-3,127-3S1444,485,1441,467z"/>
		<path class="st3" d="M31,461L31,461c0,0,4-5,16-1l20,73C67,533,18,519,31,461z"/>
	</g>
</g>
<g id="Lobster">
	<g id="Claws">
		<path class="st5" d="M682,286c0,0,74,23,42,57c-12-12-75.2-68.1-74-60c3,20,84,83.5,67,85c-110,10-118-72-118-72s-5.1-33,8-41
			c23-14,135.3,31.5,139,29v12C746,296,689,273,682,286z"/>
		<path class="st5" d="M931.5,221.5c75-28,160.5,123.5,33.5,155.5c-27.8,7-42.5-56.5-42.5-56.5s39.5-42.1,51-68c4-9-41,48-56,49
			c-11.4,0.8,36-65,36-65l-12,3C916.5,252.5,840,294,840,294v-12C840,282,913.5,239.5,931.5,221.5z"/>
	</g>
	<g id="body">
		<path class="st6" d="M759,319c-4,7,6,121,18,139s42,12.8,63,8.9c21-3.9,57,21,98,46.1c49.4,30.2,6.2,27,11,37c15,31,30,11,37,5
			c17.5-15,21.9-15.7,27-19c17-11,17.1-7.1,6-20c-6-7-16-6-24-2c-6.9,3.4-73.4-54.8-75.9-56.9c0,0-0.1-0.1-0.1-0.1
			c-2.3-1.4-54.5-33.9-78.9-32c-25,2-13.9-100.2-17-102C816.8,319.5,763.6,311,759,319z"/>
	</g>
	<g id="Head">
		<path class="st6" d="M767.5,302.5c1.4-0.1,18,10,18,11S806,315,806,315l22-12c0,0,17.6,3,2.8-32.5c-14.8-35.5-55.3-35.5-70.1,0
			S759,303,767.5,302.5z"/>
		<g id="Jaw">
			<path class="st7" d="M786.5,305.5c1-1,19,0,19,0s-6,8-9,8S786.5,305.5,786.5,305.5z"/>
		</g>
	</g>
	<g id="Antenna">
		<path class="st8" d="M830.5,270.5c0,0,104-133,169,23s137-14,137-14s-62,82-83,75c-26-11-73-122-109-137c-54-24-116,48-116,48
			L830.5,270.5z"/>
		<path class="st8" d="M764,264.2c0.1-0.3,0.5-0.4,0.8-0.2c1.4,0.7-3.8,7-3.8,7c-10,5-67-30-14-58s61-48.6,56-56
			c-20-30-80.8-54.8-102-35c-11,16-107,97-82,194c38,104,22,90-28,91s-19-17-19-16c0,0.9,4.1,6.7,4.9,7.8c0.1,0.1,0.2,0.2,0.3,0.2
			c4,0.9,65.5,14,58.8-15c0,0,0,0,0,0c-7-23-34-90-22-138c10-52,86-128,89-130c28-15,82,13,104,40c1,25-37,46-56,57
			c-21,11-33,29-12,45C756.2,271.1,763.4,265.6,764,264.2z"/>
	</g>
	<g id="Eyes">
		<path class="st7" d="M825.2,265.9c0.4-4.3-2.5-8.1-6.7-8.7c-3-0.5-6.2-0.2-6.9,3.1c-2.4,11.2-2.1,7.2,3.9,9.2
			C822.1,271.7,824.9,269.9,825.2,265.9z"/>
		<path class="st7" d="M770,261.9c0.7-4.2,4.5-7.1,8.8-6.7c3.1,0.3,6,1.5,5.9,4.8c-0.6,11.4,0.2,7.6-6.1,7.9
			C771.5,268.3,769.3,265.8,770,261.9z"/>
	</g>
</g>
</svg>
