<?xml version="1.0" encoding="utf-8"?>
<!-- Generator: Adobe Illustrator 22.1.0, SVG Export Plug-In . SVG Version: 6.00 Build 0)  -->
<svg version="1.1" id="Layer_1" xmlns="http://www.w3.org/2000/svg" xmlns:xlink="http://www.w3.org/1999/xlink" x="0px" y="0px"
	 viewBox="0 0 1480 750" style="enable-background:new 0 0 1480 750;" xml:space="preserve">
<style type="text/css">
	.st0{fill:#00051B;}
	.st1{fill:#FFF0CE;}
	.st2{fill:#2B2B2B;}
	.st3{fill:#ECDEDB;}
	.st4{fill:#908FB2;}
	.st5{fill:#8F0500;}
	.st6{fill:#2B0900;stroke:#000000;stroke-miterlimit:10;}
	.st7{fill:#6C1A00;}
</style>
<g id="Car">
	<g id="Steering">
		<path class="st0" d="M926,289c1-3,7-3,9-1s11,83,9,86s-9,2-9,0C935,374,925,292,926,289z"/>
	</g>
	<g id="Left_Seat">
		<path class="st1" d="M724,244c1,1,9-22,19,0s5,19,5,19l1,43c0,0-31,7-32,0s0-52,0-52L724,244z"/>
		<path class="st1" d="M712,320h39c0,0,34,99,31,106s-42,17-45,0S712,320,712,320z"/>
		<path class="st1" d="M736,435l1,24c11,4,142-4,142-4s-1-23-3-20S736,435,736,435z"/>
		<path class="st1" d="M474.6,262.2c1,1,8.7-21.3,18.4,0c9.7,21.3,4.9,18.4,4.9,18.4l1,41.7c0,0-30.1,6.8-31,0s0-50.5,0-50.5
			L474.6,262.2z"/>
		<path class="st1" d="M463,336h37.8c0,0,33,96.1,30.1,102.9s-40.7,16.5-43.7,0C484.3,422.4,463,336,463,336z"/>
		<path class="st1" d="M486.3,447.6l1,23.3C497.9,474.8,625,467,625,467s-1-22.3-2.9-19.4S486.3,447.6,486.3,447.6z"/>
	</g>
	<g id="Dash">
		<path class="st1" d="M950,360h63v-22l-54-29C953,328,950,360,950,360z"/>
	</g>
	<g id="Wheels">
		<circle class="st2" cx="1230" cy="493" r="64"/>
		<circle class="st3" cx="1230.5" cy="493.5" r="42.5"/>
		<circle class="st2" cx="317" cy="484" r="64"/>
		<circle class="st3" cx="317.5" cy="484.5" r="42.5"/>
	</g>
	<g id="Panel">
		<path class="st4" d="M674.9,346l12,133l297-7l-5-113l35-12l-63-60l6-5l67,43l32,21c0,0,367-12,387,13c6,10,14,101-10,101
			c0,0-129,3-146,3c-2.4-20.9-27-22-62-21c-58.1,1.7-58,62-58,62c-32,1-779,1-779,1s-287,10-300,3s-39-13-47-73
			c-0.8-5.7,37.5-46.1,38-47c1.6-10.8-40-19-43-33l80-9l97,5l247,1L674.9,346z"/>
		<path class="st3" d="M1446,435c0,0,9,33,9,52c0,31-27,28-59,29s-92,0-92,0l-17.1-53c0,0,106.1-3,125.1-3S1449,453,1446,435z"/>
		<path class="st3" d="M36,429L36,429c0,0,4-5,16-1l20,73C72,501,23,487,36,429z"/>
	</g>
</g>
<g id="Lobster">
	<g id="Claws">
		<path class="st5" d="M687,254c0,0,74,23,42,57c-12-12-75.2-68.1-74-60c3,20,84,83.5,67,85c-110,10-118-72-118-72s-5.1-33,8-41
			c23-14,135.3,31.5,139,29v12C751,264,694,241,687,254z"/>
		<path class="st5" d="M936.5,189.5c75-28,160.5,123.5,33.5,155.5c-27.8,7-42.5-56.5-42.5-56.5s39.5-42.1,51-68c4-9-41,48-56,49
			c-11.4,0.8,36-65,36-65l-12,3C921.5,220.5,845,262,845,262v-12C845,250,918.5,207.5,936.5,189.5z"/>
	</g>
	<g id="body">
		<path class="st5" d="M764,287c-4,7,6,121,18,139s42,12.8,63,8.9s57,21,98,46.1c49.4,30.2,2.2,28.8,7,38.8
			c10,44,31.9,10.8,37.5,3.5c4-5.3,6.8-8.6,19.5-5.5c26.1,11.6,17.3-13.3-1.8-23.3c-3.5-0.1-10,4.3-15.7,1.5c-8-3-69.5-91-131.5-104
			c-22.7-1.3-13.2-101.1-16.3-102.9C835.4,285.6,768.6,279,764,287z"/>
	</g>
	<g id="Head">
		<path class="st5" d="M772.5,270.5c1.4-0.1,18,10,18,11S811,283,811,283l22-12c0,0,17.6,3,2.8-32.5s-55.3-35.5-70.1,0
			S764,271,772.5,270.5z"/>
		<g id="Jaw">
			<path class="st6" d="M791.5,273.5c1-1,19,0,19,0s-6,8-9,8S791.5,273.5,791.5,273.5z"/>
		</g>
	</g>
	<g id="Antenna">
		<path class="st7" d="M835.5,238.5c0,0,104-133,169,23s137-14,137-14s-62,82-83,75c-26-11-73-122-109-137c-54-24-116,48-116,48
			L835.5,238.5z"/>
		<path class="st7" d="M769,232.2c0.1-0.3,0.5-0.4,0.8-0.2c1.4,0.7-3.8,7-3.8,7c-10,5-67-30-14-58s61-48.6,56-56
			c-20-30-80.8-54.8-102-35c-11,16-107,97-82,194c38,104,22,90-28,91s-19-17-19-16c0,0.9,4.1,6.7,4.9,7.8c0.1,0.1,0.2,0.2,0.3,0.2
			c4,0.9,65.5,14,58.8-15l0,0c-7-23-34-90-22-138c10-52,86-128,89-130c28-15,82,13,104,40c1,25-37,46-56,57c-21,11-33,29-12,45
			C761.2,239.1,768.4,233.6,769,232.2z"/>
	</g>
	<g id="Eyes">
		<path class="st6" d="M830.2,233.9c0.4-4.3-2.5-8.1-6.7-8.7c-3-0.5-6.2-0.2-6.9,3.1c-2.4,11.2-2.1,7.2,3.9,9.2
			C827.1,239.7,829.9,237.9,830.2,233.9z"/>
		<path class="st6" d="M775,229.9c0.7-4.2,4.5-7.1,8.8-6.7c3.1,0.3,6,1.5,5.9,4.8c-0.6,11.4,0.2,7.6-6.1,7.9
			C776.5,236.3,774.3,233.8,775,229.9z"/>
	</g>
</g>
</svg>
