<?xml version="1.0" encoding="utf-8"?>
<!-- Generator: Adobe Illustrator 22.1.0, SVG Export Plug-In . SVG Version: 6.00 Build 0)  -->
<svg version="1.1" xmlns="http://www.w3.org/2000/svg" xmlns:xlink="http://www.w3.org/1999/xlink" x="0px" y="0px"
	 viewBox="0 0 1397 785" style="enable-background:new 0 0 1397 785;" xml:space="preserve">
<style type="text/css">
	.st0{fill:url(#SVGID_1_);}
	.st1{fill:#B94F00;stroke:#FFFFFF;stroke-miterlimit:10;}
	.st2{fill:#404F48;}
	.st3{fill:#8C878B;}
	.st4{fill:#544F4F;}
	.st5{fill:#D5D5DA;}
	.st6{fill:#A3A3D3;}
	.st7{fill:#7E7EAA;}
	.st8{fill:#53537A;}
	.st9{fill:#40241C;}
	.st10{fill:#4F3C46;}
	.st11{fill:#43281C;}
	.st12{fill:#4F4A46;}
	.st13{fill:#76A571;}
	.st14{fill:#578A52;}
	.st15{fill:#FFFFFF;stroke:#000000;stroke-miterlimit:10;}
</style>
<g id="Background">
	<linearGradient id="SVGID_1_" gradientUnits="userSpaceOnUse" x1="-0.5" y1="391" x2="1394.5" y2="391">
		<stop  offset="1.970971e-02" style="stop-color:#1E202B"/>
		<stop  offset="0.3408" style="stop-color:#43415B"/>
		<stop  offset="0.7877" style="stop-color:#726C9A"/>
		<stop  offset="1" style="stop-color:#857DB2"/>
	</linearGradient>
	<rect x="-0.5" y="-4.5" class="st0" width="1395" height="791"/>
</g>
<g id="horizon_line">
	<line class="st1" x1="44" y1="537" x2="1366" y2="537"/>
</g>
<g id="Land">
	<polygon class="st2" points="0,531 196.7,531.1 1394,532 1394,782 0,782 	"/>
</g>
<g id="Waterfall">
	<path class="st3" d="M75,96c14-10,18.4-47.8,83-57c18.4-2.6,29.8,0,49,0c27,0,60-15,96,0c31.4,13.1,100,107,71,279
		c-6,35.6-28,215-28,215l-291-2c0,0-17-109-24.5-182.5s-1-166,0.5-172.5C39,140,61,106,75,96z"/>
	<g id="Cliffs">
		<path class="st4" d="M104,113c0,0-31.5,33.5-23.5,35.5c10.4,2.6,15.5,9.5,24,1C107.5,146.5,114,137,104,113z"/>
	</g>
	<path class="st5" d="M208,247l22,14c0,0-1,66,0,81s14,46,17,67s1,2,1,40s-6,19-1,48s10,38,10,38h-48l11-101v-61c0,0-7-42-13-53
		S208,247,208,247z"/>
	<path class="st4" d="M139,255c7-14,44-18,44-18s28,2,33,12.9c5.3,11.5-11.1,44.4,0,76c31,88.1-6,210.1-6,210.1l-86.8-0.6L115,393.9
		l9-93L139,255z"/>
	<path class="st4" d="M73,205c-9,7-0.1,26.1-12,65c-15,49-21,59-14,76s16,38,25,77s8.3,33.8,15,81c4,28,8,27,8,27l7-6
		c0,0-29.1-129-31-134c-3-8-19.5-50.6-19-57c1-14,14-54,19-77C75,238.4,73,205,73,205z"/>
	<path class="st4" d="M317,324c0,0,31,33,30,44s-12,52-5,65s3,10,7,30s1,4-1,23s-3,33-6,49l-39.1-0.3c0,0,24.1-40.7,31.1-81.7
		c1.5-8.9-4-43,3-77c0-24.4-25-46-36-58L317,324z"/>
	<path class="st4" d="M147,43.6C140,44,124,53,121,60s5.9,21.1,13,33c12,20,8,33,8,35s9,12,9,12s-1-43,0-57
		C151.7,73.5,154,43.3,147,43.6z"/>
	<path class="st4" d="M201,44c0,0,10-12,20-12c8,0,19,0,27,1c0,0,10-1,4,20c-3.6,12.5-8,27.8-8,35c0,14-1,28-4,31
		c-4.5,4.5-19,4-20-5c-4.8-43.5,0-23-11-46L201,44z"/>
	<path class="st4" d="M299,41c0,0,30,26,29,45c-1.8,33.3-5.7,40.1-16,59c-24,44-27,88-23,92s2.3,20.3-5,9c-9-14,3-58,3-58
		s16-40,22-55s13-31.7,13-46c0-9-9-28-12-31C298,44,299,41,299,41z"/>
	<path class="st5" d="M183.2,40L166,39.9l0.2,100.1c0,0-4.2,98-2.2,101c14-5,22-4,27.2-3C192.2,238,183.2,40,183.2,40z"/>
	<path class="st6" d="M196.2,238.3l10.2-5c0,0,9,0.2,9.5,2.8c0.7,3.3-3.7,2-6.4,0.9c-1.2-0.5-2.1-0.9-2.1-0.9L196.2,238.3z"/>
	<path class="st6" d="M191,238l17-8c4,1,8,2,10,1s2-4-2-5s-10,1-10,1L191,238z"/>
	<path class="st6" d="M203.2,241l5.1-2.5c0,0,4.4,0.1,4.7,1.4c0.3,1.6-1.8,1-3.2,0.5c-0.6-0.2-1.1-0.5-1.1-0.5L203.2,241z"/>
	<path class="st6" d="M161.1,241.3l-10.2-5c0,0-9,0.2-9.5,2.8c-0.7,3.3,3.7,2,6.4,0.9c1.2-0.5,2.1-0.9,2.1-0.9L161.1,241.3z"/>
	<path class="st6" d="M164.3,240l-17-8c-4,1-8,2-10,1s-2-4,2-5s10,1,10,1L164.3,240z"/>
	<path class="st6" d="M153.1,244l-5.1-2.5c0,0-4.4,0.1-4.7,1.4c-0.3,1.6,1.8,1,3.2,0.5c0.6-0.2,1.1-0.5,1.1-0.5L153.1,244z"/>
	<path class="st4" d="M56,119c0,0-15,9-17,13c-2.1,2.8,4.9,16.8,11,28c2,10,9,37,13,39l-9-35l-5-15c-2-12-2.2-14.1,0-17
		C52,128,56,119,56,119z"/>
</g>
<g id="Sea">
	<path class="st6" d="M209,535c0,0,64,23,83,25s81,18,141,11s160,6,197,15s328,79,380,86s387,111,387,111V533l-1140-2L209,535z"/>
</g>
<g id="Waves">
	<path class="st7" d="M705,545c0,0,81.8,54,162,72c49,11,114,28,149,42c15.6,6.2,166,27.1,234,18c82-11,140-25,147-114
		c1.7-21.5-147-17.5-160.5-19.3S937,535,922,536s-55.9-3-78-3C791,533,707,531,705,545z"/>
	<path class="st8" d="M846,557c-54.6,10.3,86,22,86,22s110,48,145,47c8.1-0.2,43,4,108-1c65.3-5,205-25,205-62
		C1390,536,915,544,846,557z"/>
</g>
<g id="Boat2">
	<path class="st9" d="M818.5,497.6c0,0,17.6,61.5,40.8,61.5s92.2,4.4,112.9,4.4c20.7,0,9.4-42.7,9.4-42.7S824.8,512.7,818.5,497.6z"
		/>
	<path class="st5" d="M972,469.7v3.6c0,0-54.1-0.1-65.5-0.1l-0.7,42l-4.7-1l2.3-161.1h5l-1.9,116.8L972,469.7z"/>
	<path class="st10" d="M905.2,468.8l75.2-2.5c0,0,4.8,0,4.8,16.3l-10.2-0.4l-71.4-2.5L905.2,468.8z"/>
</g>
<g id="boat3">
	<path class="st9" d="M1236.5,516c0,0,14.8,51.8,34.4,51.8c19.6,0,77.7,3.7,95.2,3.7s7.9-36,7.9-36S1241.8,528.7,1236.5,516z"/>
	<path class="st5" d="M1365.9,492.5v3c0,0-45.6-0.1-55.2-0.1l-0.6,35.4l-3.9-0.9l2-135.8h4.2l-1.6,98.4L1365.9,492.5z"/>
	<path class="st10" d="M1309.5,491.7l63.4-2.1c0,0,4.1,0,4.1,13.7l-8.6-0.4l-60.1-2.1L1309.5,491.7z"/>
</g>
<g id="Boat">
	<path class="st11" d="M985,506c0,0,28,98,65,98s147,7,180,7s15-68,15-68S995,530,985,506z"/>
	<path class="st5" d="M1231,466v5.7c0,0-86.3-0.2-104.4-0.2l-1.1,67l-7.4-1.7l3.7-256.8h8l-3.1,186.1L1231,466z"/>
	<path class="st12" d="M1122.4,465l119.8-4c0,0,7.7,0,7.7,26l-16.3-0.7l-113.7-4L1122.4,465z"/>
</g>
<g id="Pray_Mantis">
	<path class="st13" d="M231,636c0,0,32-8,34-8s4,28-4,31C252.6,662.1,231,636,231,636z"/>
	<path class="st14" d="M232.3,634.1c2.6-3.2,7.7-2.2,8.3-0.4c1.7,5.1,1.8,6.8-0.5,8.2c-2.3,1.4-4.4,1.9-6.9-1.3
		C231.5,638.5,229.9,637,232.3,634.1z"/>
	<path class="st14" d="M260.6,627.8c7.1-6.5,9.7,6.3,4.9,8.2C263.1,636.1,258.3,634.3,260.6,627.8z"/>
	<path class="st13" d="M238,644c0,2-22,1-29,1s-16,14-16,14s-7,8.5-10,9c-35,6-99,24-83,34c5.5,3.4,24.7,13.5,34,12
		c25-4,35.3-13.6,36-15c1-2,26-20,24-32c10-15,19-13,19-13s18-3,18-3s10.8-3.3,10.8-3.3L238,644z"/>
	<path class="st13" d="M223,650l5,36c0,0,33.3,42.7,50,26c3.6-3.6,17,16,21,16c7,0,24.3,24.3,26,26c3,3-37-49-37-49l-55-22
		c0,0-5.8-31.7-5.9-31.3C227,652,223,650,223,650z"/>
	<polygon class="st15" points="238.5,637.5 236.5,636.5 238.5,636.5 	"/>
	<polygon class="st15" points="263.5,631.5 263.5,632.5 265.5,631.5 	"/>
	<path class="st13" d="M238,638"/>
</g>
</svg>
