<?xml version="1.0" standalone="no"?>
<!DOCTYPE svg PUBLIC "-//W3C//DTD SVG 20010904//EN"
 "http://www.w3.org/TR/2001/REC-SVG-20010904/DTD/svg10.dtd">
<svg version="1.0" xmlns="http://www.w3.org/2000/svg"
 width="785.000000pt" height="785.000000pt" viewBox="0 0 785.000000 785.000000"
 preserveAspectRatio="xMidYMid meet">
<metadata>
Created by potrace 1.11, written by Peter Selinger 2001-2013
</metadata>
<g transform="translate(0.000000,785.000000) scale(0.100000,-0.100000)"
fill="#000000" stroke="none">
<path d="M4439 7672 c-69 -97 -129 -186 -132 -197 -3 -11 -9 -51 -13 -90 -3
-38 -8 -78 -9 -87 -5 -24 -17 -166 -19 -212 l-1 -38 -83 -24 c-100 -29 -137
-47 -219 -107 -138 -102 -260 -308 -289 -487 -3 -19 -8 -38 -10 -41 -6 -11
-18 -162 -17 -229 3 -297 3 -388 0 -405 -3 -11 -8 -42 -11 -70 -11 -79 -47
-204 -81 -280 -17 -38 -37 -85 -44 -102 l-13 -32 -42 28 c-151 103 -359 195
-486 215 -14 3 -45 8 -70 11 -73 12 -266 5 -291 -11 -3 -2 -20 -6 -38 -9 -40
-7 -139 -41 -207 -70 l-51 -23 -16 32 c-9 17 -37 69 -62 116 -147 269 -266
523 -268 573 -1 32 10 173 18 218 3 21 8 73 20 194 1 17 6 66 9 110 9 104 12
112 42 119 70 18 95 99 48 155 -35 42 -93 44 -133 3 -29 -28 -30 -34 -46 -207
-3 -27 -7 -63 -9 -80 -3 -16 -8 -61 -11 -100 -4 -38 -8 -81 -10 -95 -3 -14 -7
-55 -10 -91 -3 -36 -7 -74 -9 -86 -3 -11 -7 -53 -11 -94 -6 -68 -4 -81 24
-153 55 -137 203 -467 259 -575 l53 -105 -48 -40 c-241 -204 -380 -455 -430
-772 -15 -99 -8 -366 12 -464 3 -14 8 -38 11 -55 2 -16 10 -48 15 -70 6 -22
13 -47 14 -57 8 -39 69 -204 111 -299 45 -101 110 -222 186 -344 20 -33 56
-91 79 -130 23 -38 49 -78 57 -87 8 -10 11 -18 7 -18 -4 0 -1 -8 7 -17 9 -10
28 -43 44 -73 15 -30 31 -57 35 -60 4 -3 9 -14 11 -25 1 -11 8 -23 13 -27 6
-4 10 -11 10 -15 1 -4 19 -47 42 -94 36 -76 89 -208 98 -249 2 -8 16 -57 30
-109 25 -94 28 -106 39 -211 4 -30 9 -71 11 -90 2 -19 7 -60 10 -90 5 -50 10
-91 20 -160 2 -14 7 -45 10 -70 46 -323 155 -651 326 -979 125 -239 209 -347
361 -463 161 -123 385 -214 623 -253 65 -11 415 -14 480 -5 33 5 80 12 105 15
183 24 454 106 673 205 175 79 465 243 497 279 3 4 23 19 45 36 127 93 283
292 343 437 62 148 83 253 87 433 6 270 -32 470 -171 897 -58 178 -115 312
-165 385 -16 23 -29 45 -29 48 0 14 -105 142 -179 218 -42 43 -107 104 -146
135 -38 31 -72 59 -75 62 -3 3 -21 17 -40 30 -19 13 -37 27 -40 30 -13 14
-255 180 -380 259 -112 72 -232 209 -304 348 -16 32 -16 33 6 37 268 54 450
152 587 316 46 55 121 172 125 195 1 6 9 26 18 45 36 76 51 155 53 277 5 260
-55 468 -220 763 -45 79 -117 262 -130 328 -1 9 -10 44 -18 77 -8 33 -18 78
-22 100 -9 49 -13 77 -20 113 -3 15 -7 47 -10 72 -3 25 -8 54 -10 65 -2 11 -7
47 -10 80 -24 210 -150 484 -282 609 -76 72 -183 117 -303 129 l-35 3 2 65 c1
86 12 273 19 318 3 20 26 66 54 106 27 39 71 103 97 143 40 61 52 72 72 68 54
-9 85 75 35 94 -14 6 -31 10 -37 10 -7 0 -69 -80 -138 -178z"/>
</g>
</svg>
